<svg width="1538" height="759" viewBox="0 0 1538 759" fill="none" xmlns="http://www.w3.org/2000/svg">
<path d="M736.5 307.451H779.5V544H736.5V307.451Z" fill="black"/>
<path d="M779.5 251V307.451H736.5V284L779.5 251Z" fill="black"/>
<path d="M219 306.451H267.424L270 545H219V306.451Z" fill="black"/>
<path d="M267.424 254L267.424 306.451H219V286.782L267.424 254Z" fill="black"/>
<path d="M267 234.5L219 268V188H267V234.5Z" fill="#F2682A"/>
<rect x="299" y="401" width="107" height="43" fill="black"/>
<path d="M1076 251H1047V294.5L1076 251Z" fill="black"/>
<path d="M828 251H1047V295H828V251Z" fill="black"/>
<path d="M975 545V295H931V545H975Z" fill="black"/>
<path d="M1215.5 420.5L1220 413L1257.5 435L1257 436H1215.5V420.5Z" fill="black"/>
<path d="M1215.5 436H1257V545H1215L1215.5 436Z" fill="black"/>
<path d="M1321.17 250.241L1372.03 250.238L1257.05 435.725L1219.19 413.607L1321.17 250.241Z" fill="black"/>
<path d="M1101 250.23L1152.5 250.229L1227.5 370.499L1202 409.499L1101 250.23Z" fill="black"/>
<path d="M686.238 501.652C665.403 522.772 638.752 537.007 609.788 542.487C580.824 547.968 550.902 544.436 523.955 532.357C497.007 520.278 474.296 500.216 458.806 474.809C443.315 449.402 435.77 419.838 437.163 390.004C438.556 360.169 448.821 331.46 466.609 307.649C484.398 283.839 508.877 266.041 536.829 256.596C564.781 247.15 594.898 246.499 623.222 254.727C651.547 262.956 676.752 279.679 695.526 302.699L664.891 328.372C651.228 311.619 632.885 299.449 612.272 293.46C591.659 287.472 569.741 287.946 549.399 294.82C529.056 301.694 511.242 314.646 498.296 331.975C485.351 349.303 477.88 370.196 476.867 391.908C475.853 413.621 481.344 435.136 492.617 453.626C503.89 472.116 520.418 486.716 540.03 495.507C559.641 504.297 581.417 506.867 602.495 502.879C623.574 498.891 642.969 488.531 658.132 473.161L686.238 501.652Z" fill="black"/>
</svg>
